<svg width="64" height="64" viewBox="0 0 64 64" fill="none" xmlns="http://www.w3.org/2000/svg">
<rect width="64" height="64" rx="14" fill="#0A0A0A"/>
<path fill-rule="evenodd" clip-rule="evenodd" d="M13.528 8.776C12.528 7.97 11.199 7.854 10.096 8.476C8.993 9.098 8.305 10.352 8.319 11.714C8.424 21.793 8.61 39.73 8.689 47.357C8.713 49.661 9.552 51.865 11.029 53.502C13.391 56.12 17.038 60.161 19.344 62.718C20.724 64.247 22.598 65.117 24.559 65.139C32.568 65.227 54.215 65.466 64.235 65.577C64.928 65.585 65.544 65.093 65.751 64.367C65.957 63.64 65.705 62.851 65.131 62.424C60.837 59.233 54.466 54.498 51.427 52.239C50.296 51.398 48.961 50.949 47.595 50.949H30.63C28.73 50.949 26.91 50.111 25.578 48.624C24.246 47.137 23.514 45.124 23.546 43.038L23.548 42.944C23.614 38.648 26.804 35.204 30.717 35.204H40.952C41.712 35.204 42.386 34.667 42.623 33.873C42.86 33.079 42.606 32.208 41.993 31.714C34.972 26.055 21.121 14.89 13.528 8.776Z" fill="white" transform="translate(-4 -5) scale(.84)"/>
</svg>
