<svg width="50" height="50" viewBox="0 0 50 50" xmlns="http://www.w3.org/2000/svg">
<path fill-rule="evenodd" clip-rule="evenodd" d="M4.53117 0.606182C3.66159 -0.094887 2.50574 -0.195932 1.54612 0.34525C0.586495 0.886432 -0.0120842 1.97682 0.000185082 3.16132C0.0911224 11.9259 0.253058 27.5232 0.321892 34.1561C0.342642 36.16 1.0724 38.0764 2.35689 39.5001C4.41092 41.7769 7.58118 45.2909 9.58659 47.5138C10.7865 48.8439 12.4157 49.6004 14.1206 49.6191C21.0847 49.696 39.9086 49.9037 48.6201 49.9999C49.2228 50.0066 49.7583 49.5786 49.9379 48.9469C50.1174 48.3151 49.8987 47.6287 49.3995 47.2577C45.666 44.4829 40.1268 40.3661 37.4841 38.402C36.5005 37.6711 35.3402 37.2804 34.1526 37.2804H19.4005C17.7488 37.2804 16.1662 36.552 15.0081 35.2588C13.85 33.9656 13.2133 32.2158 13.241 30.4023C13.2415 30.3751 13.2419 30.348 13.2423 30.3207C13.2995 26.5856 16.0733 23.5905 19.4753 23.5905C22.3468 23.5905 25.7124 23.5905 28.373 23.5905C29.0344 23.5905 29.6208 23.1239 29.8267 22.4338C30.0326 21.7438 29.8114 20.9865 29.2783 20.5568C23.1739 15.6355 11.1324 5.92805 4.53117 0.606182Z" fill="#0170FF"/>
</svg>
