<svg width="191" height="58" viewBox="0 0 191 58" fill="none" xmlns="http://www.w3.org/2000/svg">
<g opacity="0.84">
<path fill-rule="evenodd" clip-rule="evenodd" d="M15.2286 6.99951C12.0132 6.99951 9.04205 8.7149 7.43435 11.4995L1.66085 21.4995C0.0531559 24.2841 0.053153 27.7149 1.66085 30.4995L7.43435 40.4995C9.04205 43.2841 12.0132 44.9995 15.2286 44.9995H26.7756C29.991 44.9995 32.9621 43.2841 34.5698 40.4995L40.3433 30.4995C41.951 27.7149 41.951 24.2841 40.3433 21.4995L34.5698 11.4995C32.9621 8.7149 29.991 6.99951 26.7756 6.99951H15.2286ZM26.7756 12.9995L19.5587 12.9995C18.404 12.9995 17.6825 14.2494 18.2607 15.2489C20.0447 18.3327 21.8329 21.4142 23.6143 24.4995C24.1502 25.4277 24.1502 26.5713 23.6143 27.4995C21.8329 30.5849 20.0447 33.6663 18.2607 36.7501C17.6825 37.7496 18.404 38.9995 19.5587 38.9995H26.7756C27.8474 38.9995 28.8378 38.4277 29.3737 37.4995L35.1472 27.4995C35.6831 26.5713 35.6831 25.4277 35.1472 24.4995L29.3737 14.4995C28.8378 13.5713 27.8474 12.9995 26.7756 12.9995Z" fill="black"/>
</g>
<path d="M62.12 39.396C58.232 39.396 54.98 38.136 52.364 35.616C49.748 33.072 48.44 29.796 48.44 25.788C48.44 21.756 49.772 18.444 52.436 15.852C55.124 13.236 58.376 11.928 62.192 11.928C64.568 11.928 66.776 12.432 68.816 13.44C70.856 14.424 72.464 15.756 73.64 17.436L70.076 20.928C67.988 18.36 65.456 17.076 62.48 17.076C60.08 17.076 58.064 17.904 56.432 19.56C54.8 21.192 53.984 23.268 53.984 25.788C53.984 28.236 54.788 30.264 56.396 31.872C58.004 33.48 60.02 34.284 62.444 34.284C65.54 34.284 68.12 32.988 70.184 30.396L73.856 33.744C72.608 35.448 70.94 36.816 68.852 37.848C66.788 38.88 64.544 39.396 62.12 39.396ZM81.9073 39H76.8313V19.38H81.6913V22.008C82.8673 19.896 84.6673 18.84 87.0913 18.84C87.8833 18.84 88.6753 18.984 89.4673 19.272L89.0353 24.132C88.1713 23.868 87.3913 23.736 86.6953 23.736C85.2073 23.736 84.0313 24.24 83.1673 25.248C82.3273 26.232 81.9073 27.708 81.9073 29.676V39ZM101.615 32.16L106.079 19.38H111.623L103.739 39.972C102.779 42.492 101.627 44.352 100.283 45.552C98.9628 46.752 97.3428 47.352 95.4228 47.352C93.9348 47.352 92.6748 47.028 91.6428 46.38L92.5068 42.132C93.3948 42.564 94.2348 42.78 95.0268 42.78C96.5868 42.78 97.8588 41.748 98.8428 39.684L99.2388 38.784L90.6708 19.38H96.5388L101.615 32.16ZM125.506 18.876C128.266 18.876 130.57 19.872 132.418 21.864C134.242 23.832 135.154 26.268 135.154 29.172C135.154 32.052 134.23 34.488 132.382 36.48C130.534 38.472 128.23 39.468 125.47 39.468C123.046 39.468 120.994 38.556 119.314 36.732V47.064H114.238V19.38H119.278V21.792C120.958 19.848 123.034 18.876 125.506 18.876ZM124.606 34.824C126.214 34.824 127.522 34.284 128.53 33.204C129.538 32.124 130.042 30.792 130.042 29.208C130.042 27.624 129.538 26.292 128.53 25.212C127.522 24.132 126.214 23.592 124.606 23.592C123.022 23.592 121.726 24.132 120.718 25.212C119.71 26.292 119.206 27.624 119.206 29.208C119.206 30.792 119.71 32.124 120.718 33.204C121.726 34.284 123.022 34.824 124.606 34.824ZM151.097 33.852L152.609 37.848C150.977 38.928 149.045 39.468 146.813 39.468C144.557 39.468 142.853 38.82 141.701 37.524C140.549 36.204 139.973 34.272 139.973 31.728V23.628H136.769V19.38H140.009V12.432H145.049V19.38H151.529V23.628H145.049V31.404C145.049 33.708 145.973 34.86 147.821 34.86C148.829 34.86 149.921 34.524 151.097 33.852ZM173.782 28.74C173.782 29.34 173.722 30.084 173.602 30.972H158.878C159.598 33.756 161.506 35.148 164.602 35.148C166.882 35.148 168.994 34.488 170.938 33.168L172.954 36.732C170.458 38.532 167.602 39.432 164.386 39.432C160.954 39.432 158.314 38.436 156.466 36.444C154.642 34.476 153.73 32.052 153.73 29.172C153.73 26.172 154.678 23.712 156.574 21.792C158.47 19.848 160.93 18.876 163.954 18.876C166.81 18.876 169.162 19.764 171.01 21.54C172.858 23.316 173.782 25.716 173.782 28.74ZM163.954 23.088C162.682 23.088 161.59 23.46 160.678 24.204C159.79 24.924 159.19 25.92 158.878 27.192H168.85C168.61 25.92 168.058 24.924 167.194 24.204C166.33 23.46 165.25 23.088 163.954 23.088ZM182.349 39H177.273V19.38H182.133V22.008C183.309 19.896 185.109 18.84 187.533 18.84C188.325 18.84 189.117 18.984 189.909 19.272L189.477 24.132C188.613 23.868 187.833 23.736 187.137 23.736C185.649 23.736 184.473 24.24 183.609 25.248C182.769 26.232 182.349 27.708 182.349 29.676V39Z" fill="black"/>
</svg>
