<svg width="156" height="48" viewBox="0 0 156 48" fill="none" xmlns="http://www.w3.org/2000/svg">
<g opacity="0.84">
<path opacity="0.3" d="M20.0001 4C8.9543 4 0 12.9543 0 24.0001C0 35.0458 8.9543 44.0002 20.0001 44.0002C29.9101 44.0002 38.1367 36.7925 39.7236 27.3334H39.5801C38.0999 33.0842 32.8796 37.3335 26.6668 37.3335C19.303 37.3335 13.3334 31.3639 13.3334 24.0001C13.3334 16.6362 19.303 10.6667 26.6668 10.6667C32.8796 10.6667 38.0999 14.9159 39.5801 20.6667H39.7236C38.1367 11.2076 29.9101 4 20.0001 4Z" fill="white"/>
<path d="M0 24.0001C0 12.9543 8.95434 4 20.0001 4C29.9101 4 38.1367 11.2076 39.7236 20.6667H26.2467C24.7666 14.9159 19.5462 10.6667 13.3334 10.6667C5.96956 10.6667 0 16.6363 0 24.0001Z" fill="white"/>
<path d="M0 24.0002C0 35.0459 8.95434 44.0002 20.0001 44.0002C29.9101 44.0002 38.1367 36.7926 39.7236 27.3335H26.2467C24.7666 33.0843 19.5462 37.3336 13.3334 37.3336C5.96956 37.3336 0 31.364 0 24.0002Z" fill="white"/>
</g>
<path d="M66.836 14.744L64.736 17.796L63.924 17.264C62.916 16.6293 61.7773 16.312 60.508 16.312C58.6413 16.312 57.0827 16.9467 55.832 18.216C54.5813 19.4853 53.956 21.0627 53.956 22.948C53.956 24.8707 54.572 26.476 55.804 27.764C57.0547 29.0333 58.6133 29.668 60.48 29.668C60.9093 29.668 61.3387 29.6307 61.768 29.556C62.216 29.4627 62.608 29.3413 62.944 29.192C63.2987 29.024 63.5973 28.8653 63.84 28.716C64.0827 28.5667 64.3813 28.352 64.736 28.072L66.78 31.152C66.2573 31.544 65.8373 31.8333 65.52 32.02C65.2213 32.2067 64.8853 32.384 64.512 32.552C63.056 33.1493 61.5347 33.448 59.948 33.448C56.9987 33.448 54.5627 32.468 52.64 30.508C50.7173 28.548 49.756 26.0467 49.756 23.004C49.756 19.9987 50.7453 17.488 52.724 15.472C54.7027 13.456 57.1667 12.448 60.116 12.448C60.8067 12.448 61.4413 12.504 62.02 12.616C62.6173 12.7093 63.2333 12.8773 63.868 13.12C64.5027 13.344 64.9693 13.54 65.268 13.708C65.5667 13.876 66.0893 14.2213 66.836 14.744ZM68.2515 33V19.252H72.2835V21.576C72.5262 20.7173 72.9742 20.0547 73.6275 19.588C74.2809 19.1213 75.1115 18.888 76.1195 18.888C76.3622 18.888 76.5675 18.8973 76.7355 18.916C76.9222 18.9347 77.1649 18.9813 77.4635 19.056L76.7355 22.948C76.2315 22.8173 75.7555 22.752 75.3075 22.752C74.3369 22.752 73.5622 23.0973 72.9835 23.788C72.7222 24.1053 72.5355 24.4507 72.4235 24.824C72.3302 25.1787 72.2835 25.6733 72.2835 26.308V33H68.2515ZM75.8599 19.252H80.1439L82.5799 25.86C82.6359 26.0653 82.7012 26.28 82.7759 26.504C82.8505 26.7093 82.9065 26.9147 82.9439 27.12C82.9812 27.3253 83.0185 27.5587 83.0559 27.82C83.1119 28.0627 83.1399 28.3147 83.1399 28.576L83.3919 27.12L83.7559 25.888L86.1639 19.252H90.5039L84.4279 34.008L84.0919 34.736C83.7559 35.5013 83.4852 36.052 83.2799 36.388C83.0932 36.724 82.8692 37.0413 82.6079 37.34C82.2345 37.7133 81.7119 38.0213 81.0399 38.264C80.3679 38.5067 79.6865 38.628 78.9959 38.628C78.2305 38.628 77.4839 38.4973 76.7559 38.236L77.3999 34.876C77.8292 35.0627 78.2399 35.156 78.6319 35.156C79.2292 35.156 79.6865 34.9787 80.0039 34.624C80.3212 34.2693 80.6852 33.4947 81.0959 32.3L75.8599 19.252ZM90.7841 38.236V19.252H94.8161V21.324C95.5441 19.7 96.9534 18.888 99.0441 18.888C100.892 18.888 102.395 19.5507 103.552 20.876C104.709 22.2013 105.288 23.928 105.288 26.056C105.288 28.2213 104.7 29.9853 103.524 31.348C102.348 32.7107 100.827 33.392 98.9601 33.392C96.9814 33.392 95.6001 32.6173 94.8161 31.068V38.236H90.7841ZM98.0361 22.276C97.0094 22.276 96.1788 22.6307 95.5441 23.34C94.9094 24.0493 94.5921 24.9827 94.5921 26.14C94.5921 27.316 94.9094 28.268 95.5441 28.996C96.1788 29.724 97.0188 30.088 98.0641 30.088C99.0534 30.088 99.8561 29.7333 100.472 29.024C101.107 28.296 101.424 27.3627 101.424 26.224C101.424 25.0667 101.107 24.124 100.472 23.396C99.8561 22.6493 99.0441 22.276 98.0361 22.276ZM105.731 22.584V19.252H107.775V15.836H111.779V19.252H115.167V22.584H111.779V27.68L111.807 28.772C111.938 29.6867 112.516 30.144 113.543 30.144C113.935 30.144 114.402 30.06 114.943 29.892L115.503 32.86C114.308 33.196 113.235 33.364 112.283 33.364C110.696 33.364 109.483 32.8507 108.643 31.824C108.288 31.376 108.055 30.9373 107.943 30.508C107.831 30.06 107.775 29.3413 107.775 28.352V22.584H105.731ZM130.016 27.4H119.712C119.861 28.352 120.234 29.108 120.832 29.668C121.448 30.2093 122.194 30.48 123.072 30.48C123.725 30.48 124.388 30.284 125.06 29.892C125.75 29.5 126.31 28.9867 126.74 28.352L129.596 30.312C128.7 31.4133 127.748 32.2067 126.74 32.692C125.732 33.1773 124.518 33.42 123.1 33.42C120.916 33.42 119.142 32.7667 117.78 31.46C116.436 30.1347 115.764 28.4173 115.764 26.308C115.764 24.18 116.445 22.4067 117.808 20.988C119.17 19.5693 120.897 18.86 122.988 18.86C125.078 18.86 126.777 19.5507 128.084 20.932C129.39 22.3133 130.044 24.124 130.044 26.364L130.016 27.4ZM122.96 21.772C121.186 21.772 120.104 22.78 119.712 24.796H126.068C125.956 23.8627 125.62 23.1253 125.06 22.584C124.518 22.0427 123.818 21.772 122.96 21.772ZM132.017 33V19.252H136.049V21.576C136.292 20.7173 136.74 20.0547 137.393 19.588C138.046 19.1213 138.877 18.888 139.885 18.888C140.128 18.888 140.333 18.8973 140.501 18.916C140.688 18.9347 140.93 18.9813 141.229 19.056L140.501 22.948C139.997 22.8173 139.521 22.752 139.073 22.752C138.102 22.752 137.328 23.0973 136.749 23.788C136.488 24.1053 136.301 24.4507 136.189 24.824C136.096 25.1787 136.049 25.6733 136.049 26.308V33H132.017ZM154.981 27.4H144.677C144.826 28.352 145.199 29.108 145.797 29.668C146.413 30.2093 147.159 30.48 148.037 30.48C148.69 30.48 149.353 30.284 150.025 29.892C150.715 29.5 151.275 28.9867 151.705 28.352L154.561 30.312C153.665 31.4133 152.713 32.2067 151.705 32.692C150.697 33.1773 149.483 33.42 148.065 33.42C145.881 33.42 144.107 32.7667 142.745 31.46C141.401 30.1347 140.729 28.4173 140.729 26.308C140.729 24.18 141.41 22.4067 142.773 20.988C144.135 19.5693 145.862 18.86 147.953 18.86C150.043 18.86 151.742 19.5507 153.049 20.932C154.355 22.3133 155.009 24.124 155.009 26.364L154.981 27.4ZM147.925 21.772C146.151 21.772 145.069 22.78 144.677 24.796H151.033C150.921 23.8627 150.585 23.1253 150.025 22.584C149.483 22.0427 148.783 21.772 147.925 21.772Z" fill="white"/>
</svg>
