<svg width="156" height="48" viewBox="0 0 156 48" fill="none" xmlns="http://www.w3.org/2000/svg">
<path d="M20.0001 4C8.9543 4 0 12.9543 0 24.0001C0 35.0458 8.9543 44.0002 20.0001 44.0002C29.9101 44.0002 38.1367 36.7925 39.7236 27.3334H39.5801C38.0999 33.0842 32.8796 37.3335 26.6668 37.3335C19.303 37.3335 13.3334 31.3639 13.3334 24.0001C13.3334 16.6362 19.303 10.6667 26.6668 10.6667C32.8796 10.6667 38.0999 14.9159 39.5801 20.6667H39.7236C38.1367 11.2076 29.9101 4 20.0001 4Z" fill="#A5B4FC"/>
<path d="M0 24.0001C0 12.9543 8.95434 4 20.0001 4C29.9101 4 38.1367 11.2076 39.7236 20.6667H26.2467C24.7666 14.9159 19.5462 10.6667 13.3334 10.6667C5.96956 10.6667 0 16.6363 0 24.0001Z" fill="#4338CA"/>
<path d="M0 24.0002C0 35.0459 8.95434 44.0002 20.0001 44.0002C29.9101 44.0002 38.1367 36.7926 39.7236 27.3335H26.2467C24.7666 33.0843 19.5462 37.3336 13.3334 37.3336C5.96956 37.3336 0 31.364 0 24.0002Z" fill="#4338CA"/>
<path d="M66.836 15.744L64.736 18.796L63.924 18.264C62.916 17.6293 61.7773 17.312 60.508 17.312C58.6413 17.312 57.0827 17.9467 55.832 19.216C54.5813 20.4853 53.956 22.0627 53.956 23.948C53.956 25.8707 54.572 27.476 55.804 28.764C57.0547 30.0333 58.6133 30.668 60.48 30.668C60.9093 30.668 61.3387 30.6307 61.768 30.556C62.216 30.4627 62.608 30.3413 62.944 30.192C63.2987 30.024 63.5973 29.8653 63.84 29.716C64.0827 29.5667 64.3813 29.352 64.736 29.072L66.78 32.152C66.2573 32.544 65.8373 32.8333 65.52 33.02C65.2213 33.2067 64.8853 33.384 64.512 33.552C63.056 34.1493 61.5347 34.448 59.948 34.448C56.9987 34.448 54.5627 33.468 52.64 31.508C50.7173 29.548 49.756 27.0467 49.756 24.004C49.756 20.9987 50.7453 18.488 52.724 16.472C54.7027 14.456 57.1667 13.448 60.116 13.448C60.8067 13.448 61.4413 13.504 62.02 13.616C62.6173 13.7093 63.2333 13.8773 63.868 14.12C64.5027 14.344 64.9693 14.54 65.268 14.708C65.5667 14.876 66.0893 15.2213 66.836 15.744ZM68.2515 34V20.252H72.2835V22.576C72.5262 21.7173 72.9742 21.0547 73.6275 20.588C74.2809 20.1213 75.1115 19.888 76.1195 19.888C76.3622 19.888 76.5675 19.8973 76.7355 19.916C76.9222 19.9347 77.1649 19.9813 77.4635 20.056L76.7355 23.948C76.2315 23.8173 75.7555 23.752 75.3075 23.752C74.3369 23.752 73.5622 24.0973 72.9835 24.788C72.7222 25.1053 72.5355 25.4507 72.4235 25.824C72.3302 26.1787 72.2835 26.6733 72.2835 27.308V34H68.2515ZM75.8599 20.252H80.1439L82.5799 26.86C82.6359 27.0653 82.7012 27.28 82.7759 27.504C82.8505 27.7093 82.9065 27.9147 82.9439 28.12C82.9812 28.3253 83.0185 28.5587 83.0559 28.82C83.1119 29.0627 83.1399 29.3147 83.1399 29.576L83.3919 28.12L83.7559 26.888L86.1639 20.252H90.5039L84.4279 35.008L84.0919 35.736C83.7559 36.5013 83.4852 37.052 83.2799 37.388C83.0932 37.724 82.8692 38.0413 82.6079 38.34C82.2345 38.7133 81.7119 39.0213 81.0399 39.264C80.3679 39.5067 79.6865 39.628 78.9959 39.628C78.2305 39.628 77.4839 39.4973 76.7559 39.236L77.3999 35.876C77.8292 36.0627 78.2399 36.156 78.6319 36.156C79.2292 36.156 79.6865 35.9787 80.0039 35.624C80.3212 35.2693 80.6852 34.4947 81.0959 33.3L75.8599 20.252ZM90.7841 39.236V20.252H94.8161V22.324C95.5441 20.7 96.9534 19.888 99.0441 19.888C100.892 19.888 102.395 20.5507 103.552 21.876C104.709 23.2013 105.288 24.928 105.288 27.056C105.288 29.2213 104.7 30.9853 103.524 32.348C102.348 33.7107 100.827 34.392 98.9601 34.392C96.9814 34.392 95.6001 33.6173 94.8161 32.068V39.236H90.7841ZM98.0361 23.276C97.0094 23.276 96.1788 23.6307 95.5441 24.34C94.9094 25.0493 94.5921 25.9827 94.5921 27.14C94.5921 28.316 94.9094 29.268 95.5441 29.996C96.1788 30.724 97.0188 31.088 98.0641 31.088C99.0534 31.088 99.8561 30.7333 100.472 30.024C101.107 29.296 101.424 28.3627 101.424 27.224C101.424 26.0667 101.107 25.124 100.472 24.396C99.8561 23.6493 99.0441 23.276 98.0361 23.276ZM105.731 23.584V20.252H107.775V16.836H111.779V20.252H115.167V23.584H111.779V28.68L111.807 29.772C111.938 30.6867 112.516 31.144 113.543 31.144C113.935 31.144 114.402 31.06 114.943 30.892L115.503 33.86C114.308 34.196 113.235 34.364 112.283 34.364C110.696 34.364 109.483 33.8507 108.643 32.824C108.288 32.376 108.055 31.9373 107.943 31.508C107.831 31.06 107.775 30.3413 107.775 29.352V23.584H105.731ZM130.016 28.4H119.712C119.861 29.352 120.234 30.108 120.832 30.668C121.448 31.2093 122.194 31.48 123.072 31.48C123.725 31.48 124.388 31.284 125.06 30.892C125.75 30.5 126.31 29.9867 126.74 29.352L129.596 31.312C128.7 32.4133 127.748 33.2067 126.74 33.692C125.732 34.1773 124.518 34.42 123.1 34.42C120.916 34.42 119.142 33.7667 117.78 32.46C116.436 31.1347 115.764 29.4173 115.764 27.308C115.764 25.18 116.445 23.4067 117.808 21.988C119.17 20.5693 120.897 19.86 122.988 19.86C125.078 19.86 126.777 20.5507 128.084 21.932C129.39 23.3133 130.044 25.124 130.044 27.364L130.016 28.4ZM122.96 22.772C121.186 22.772 120.104 23.78 119.712 25.796H126.068C125.956 24.8627 125.62 24.1253 125.06 23.584C124.518 23.0427 123.818 22.772 122.96 22.772ZM132.017 34V20.252H136.049V22.576C136.292 21.7173 136.74 21.0547 137.393 20.588C138.046 20.1213 138.877 19.888 139.885 19.888C140.128 19.888 140.333 19.8973 140.501 19.916C140.688 19.9347 140.93 19.9813 141.229 20.056L140.501 23.948C139.997 23.8173 139.521 23.752 139.073 23.752C138.102 23.752 137.328 24.0973 136.749 24.788C136.488 25.1053 136.301 25.4507 136.189 25.824C136.096 26.1787 136.049 26.6733 136.049 27.308V34H132.017ZM154.981 28.4H144.677C144.826 29.352 145.199 30.108 145.797 30.668C146.413 31.2093 147.159 31.48 148.037 31.48C148.69 31.48 149.353 31.284 150.025 30.892C150.715 30.5 151.275 29.9867 151.705 29.352L154.561 31.312C153.665 32.4133 152.713 33.2067 151.705 33.692C150.697 34.1773 149.483 34.42 148.065 34.42C145.881 34.42 144.107 33.7667 142.745 32.46C141.401 31.1347 140.729 29.4173 140.729 27.308C140.729 25.18 141.41 23.4067 142.773 21.988C144.135 20.5693 145.862 19.86 147.953 19.86C150.043 19.86 151.742 20.5507 153.049 21.932C154.355 23.3133 155.009 25.124 155.009 27.364L154.981 28.4ZM147.925 22.772C146.151 22.772 145.069 23.78 144.677 25.796H151.033C150.921 24.8627 150.585 24.1253 150.025 23.584C149.483 23.0427 148.783 22.772 147.925 22.772Z" fill="black"/>
</svg>
