<svg width="192" height="192" viewBox="0 0 192 192" fill="none" xmlns="http://www.w3.org/2000/svg">
  <rect width="192" height="192" rx="24" fill="#09090b"/>
  <g transform="translate(13, 13) scale(1.0)">
    <svg width="166" height="166" viewBox="0 0 166 166" fill="none" xmlns="http://www.w3.org/2000/svg">
      <path fill-rule="evenodd" clip-rule="evenodd" d="M162.041 38.7592C162.099 38.9767 162.129 39.201 162.13 39.4264V74.4524C162.13 74.9019 162.011 75.3435 161.786 75.7325C161.561 76.1216 161.237 76.4442 160.847 76.6678L131.462 93.5935V127.141C131.462 128.054 130.977 128.897 130.186 129.357L68.8474 164.683C68.707 164.763 68.5538 164.814 68.4007 164.868C68.3432 164.887 68.289 164.922 68.2284 164.938C67.7996 165.051 67.3489 165.051 66.9201 164.938C66.8499 164.919 66.7861 164.881 66.7191 164.855C66.5787 164.804 66.4319 164.76 66.2979 164.683L4.97219 129.357C4.58261 129.133 4.2589 128.81 4.0337 128.421C3.8085 128.032 3.68976 127.591 3.68945 127.141L3.68945 22.0634C3.68945 21.8336 3.72136 21.6101 3.7788 21.393C3.79794 21.3196 3.84262 21.2526 3.86814 21.1791C3.91601 21.0451 3.96068 20.9078 4.03088 20.7833C4.07874 20.7003 4.14894 20.6333 4.20638 20.5566C4.27977 20.4545 4.34678 20.3491 4.43293 20.2598C4.50632 20.1863 4.60205 20.1321 4.68501 20.0682C4.77755 19.9916 4.86051 19.9086 4.96581 19.848L35.6334 2.18492C36.0217 1.96139 36.4618 1.84375 36.9098 1.84375C37.3578 1.84375 37.7979 1.96139 38.1862 2.18492L68.8506 19.848H68.857C68.9591 19.9118 69.0452 19.9916 69.1378 20.065C69.2207 20.1289 69.3133 20.1863 69.3867 20.2566C69.476 20.3491 69.5398 20.4545 69.6164 20.5566C69.6707 20.6333 69.7441 20.7003 69.7887 20.7833C69.8621 20.911 69.9036 21.0451 69.9546 21.1791C69.9802 21.2526 70.0248 21.3196 70.044 21.3962C70.1027 21.6138 70.1328 21.8381 70.1333 22.0634V87.6941L95.686 72.9743V39.4232C95.686 39.1997 95.7179 38.9731 95.7753 38.7592C95.7977 38.6826 95.8391 38.6155 95.8647 38.5421C95.9157 38.408 95.9604 38.2708 96.0306 38.1463C96.0785 38.0633 96.1487 37.9962 96.2029 37.9196C96.2795 37.8175 96.3433 37.7121 96.4326 37.6227C96.506 37.5493 96.5986 37.495 96.6815 37.4312C96.7773 37.3546 96.8602 37.2716 96.9623 37.2109L127.633 19.5479C128.021 19.324 128.461 19.2062 128.91 19.2062C129.358 19.2062 129.798 19.324 130.186 19.5479L160.85 37.2109C160.959 37.2748 161.042 37.3546 161.137 37.428C161.22 37.495 161.316 37.5493 161.386 37.6227C161.475 37.7121 161.539 37.8175 161.619 37.9196C161.67 37.9962 161.743 38.0633 161.788 38.1463C161.861 38.274 161.903 38.408 161.954 38.5421C161.979 38.6155 162.021 38.6826 162.041 38.7592ZM155.024 72.9743V42.3826L144.919 48.1978L131.462 55.9498V86.5415L155.024 72.9743ZM124.356 121.088V90.4932L111.164 98.0857L10.7959 121.088V125.663L65.0173 156.893V93.7859L70.1333 90.8434V156.893L124.356 121.088ZM7.24145 24.3654V119.61L63.7413 89.1722V24.3654L39.4618 10.3982L7.24145 24.3654ZM40.7378 7.34622L68.5698 23.3654L96.4018 7.34622L68.5698 23.3654L40.7378 7.34622ZM99.238 41.7252V72.317L124.791 57.5972V26.9991L99.238 41.7252ZM128.91 24.0461L156.742 40.0653L128.91 56.0845L101.078 40.0653L128.91 24.0461Z" fill="#fafafa"/>
    </svg>
  </g>
</svg>
